<mxfile host="app.diagrams.net" agent="Mozilla/5.0 (X11; Linux x86_64) AppleWebKit/537.36 (KHTML, like Gecko) Chrome/131.0.0.0 Safari/537.36" version="26.0.16">
  <diagram name="第 1 页" id="t6cQPksI8nHm3-EN2w7Y">
    <mxGraphModel dx="1044" dy="613" grid="1" gridSize="10" guides="1" tooltips="1" connect="1" arrows="1" fold="1" page="1" pageScale="1" pageWidth="827" pageHeight="1169" math="0" shadow="0">
      <root>
        <mxCell id="0" />
        <mxCell id="1" parent="0" />
        <mxCell id="pT8gLiH-kr4bqjJFzXZJ-6" style="rounded=0;orthogonalLoop=1;jettySize=auto;html=1;exitX=0.25;exitY=1;exitDx=0;exitDy=0;entryX=1;entryY=0;entryDx=0;entryDy=0;endArrow=none;startFill=0;" edge="1" parent="1" source="pT8gLiH-kr4bqjJFzXZJ-1" target="pT8gLiH-kr4bqjJFzXZJ-3">
          <mxGeometry relative="1" as="geometry">
            <mxPoint x="240" y="310" as="targetPoint" />
          </mxGeometry>
        </mxCell>
        <mxCell id="pT8gLiH-kr4bqjJFzXZJ-1" value="Router_B" style="rounded=0;whiteSpace=wrap;html=1;" vertex="1" parent="1">
          <mxGeometry x="310" y="265" width="100" height="50" as="geometry" />
        </mxCell>
        <mxCell id="pT8gLiH-kr4bqjJFzXZJ-5" style="rounded=0;orthogonalLoop=1;jettySize=auto;html=1;exitX=0.75;exitY=1;exitDx=0;exitDy=0;endArrow=none;startFill=0;" edge="1" parent="1" source="pT8gLiH-kr4bqjJFzXZJ-2" target="pT8gLiH-kr4bqjJFzXZJ-3">
          <mxGeometry relative="1" as="geometry" />
        </mxCell>
        <mxCell id="pT8gLiH-kr4bqjJFzXZJ-2" value="Router_A" style="rounded=0;whiteSpace=wrap;html=1;" vertex="1" parent="1">
          <mxGeometry x="110" y="265" width="110" height="50" as="geometry" />
        </mxCell>
        <mxCell id="pT8gLiH-kr4bqjJFzXZJ-3" value="Switch" style="ellipse;whiteSpace=wrap;html=1;aspect=fixed;" vertex="1" parent="1">
          <mxGeometry x="230" y="360" width="60" height="60" as="geometry" />
        </mxCell>
        <mxCell id="pT8gLiH-kr4bqjJFzXZJ-4" value="PC" style="shape=parallelogram;perimeter=parallelogramPerimeter;whiteSpace=wrap;html=1;fixedSize=1;" vertex="1" parent="1">
          <mxGeometry x="202" y="470" width="102" height="40" as="geometry" />
        </mxCell>
        <mxCell id="pT8gLiH-kr4bqjJFzXZJ-7" style="rounded=0;orthogonalLoop=1;jettySize=auto;html=1;exitX=0.5;exitY=1;exitDx=0;exitDy=0;entryX=0.558;entryY=0.05;entryDx=0;entryDy=0;entryPerimeter=0;endArrow=none;startFill=0;" edge="1" parent="1" source="pT8gLiH-kr4bqjJFzXZJ-3" target="pT8gLiH-kr4bqjJFzXZJ-4">
          <mxGeometry relative="1" as="geometry" />
        </mxCell>
        <mxCell id="pT8gLiH-kr4bqjJFzXZJ-10" style="rounded=0;orthogonalLoop=1;jettySize=auto;html=1;exitX=0.8;exitY=0.8;exitDx=0;exitDy=0;exitPerimeter=0;entryX=0.25;entryY=0;entryDx=0;entryDy=0;endArrow=none;startFill=0;" edge="1" parent="1" source="pT8gLiH-kr4bqjJFzXZJ-8" target="pT8gLiH-kr4bqjJFzXZJ-1">
          <mxGeometry relative="1" as="geometry" />
        </mxCell>
        <mxCell id="pT8gLiH-kr4bqjJFzXZJ-8" value="Internet" style="ellipse;shape=cloud;whiteSpace=wrap;html=1;" vertex="1" parent="1">
          <mxGeometry x="193" y="140" width="120" height="80" as="geometry" />
        </mxCell>
        <mxCell id="pT8gLiH-kr4bqjJFzXZJ-9" style="rounded=0;orthogonalLoop=1;jettySize=auto;html=1;exitX=0.75;exitY=0;exitDx=0;exitDy=0;entryX=0.31;entryY=0.8;entryDx=0;entryDy=0;entryPerimeter=0;endArrow=none;startFill=0;" edge="1" parent="1" source="pT8gLiH-kr4bqjJFzXZJ-2" target="pT8gLiH-kr4bqjJFzXZJ-8">
          <mxGeometry relative="1" as="geometry" />
        </mxCell>
        <mxCell id="pT8gLiH-kr4bqjJFzXZJ-11" style="rounded=0;orthogonalLoop=1;jettySize=auto;html=1;exitX=0.25;exitY=1;exitDx=0;exitDy=0;entryX=1;entryY=0;entryDx=0;entryDy=0;endArrow=none;startFill=0;" edge="1" parent="1" source="pT8gLiH-kr4bqjJFzXZJ-12" target="pT8gLiH-kr4bqjJFzXZJ-15">
          <mxGeometry relative="1" as="geometry">
            <mxPoint x="590" y="310" as="targetPoint" />
          </mxGeometry>
        </mxCell>
        <mxCell id="pT8gLiH-kr4bqjJFzXZJ-12" value="Router_B" style="rounded=0;whiteSpace=wrap;html=1;" vertex="1" parent="1">
          <mxGeometry x="650" y="265" width="110" height="50" as="geometry" />
        </mxCell>
        <mxCell id="pT8gLiH-kr4bqjJFzXZJ-13" style="rounded=0;orthogonalLoop=1;jettySize=auto;html=1;exitX=0.75;exitY=1;exitDx=0;exitDy=0;endArrow=none;startFill=0;dashed=1;dashPattern=8 8;strokeColor=#FF0000;fontStyle=0" edge="1" parent="1" source="pT8gLiH-kr4bqjJFzXZJ-14" target="pT8gLiH-kr4bqjJFzXZJ-15">
          <mxGeometry relative="1" as="geometry" />
        </mxCell>
        <mxCell id="pT8gLiH-kr4bqjJFzXZJ-14" value="Router_A" style="rounded=0;whiteSpace=wrap;html=1;" vertex="1" parent="1">
          <mxGeometry x="460" y="265" width="110" height="50" as="geometry" />
        </mxCell>
        <mxCell id="pT8gLiH-kr4bqjJFzXZJ-15" value="Switch" style="ellipse;whiteSpace=wrap;html=1;aspect=fixed;" vertex="1" parent="1">
          <mxGeometry x="590" y="370" width="50" height="50" as="geometry" />
        </mxCell>
        <mxCell id="pT8gLiH-kr4bqjJFzXZJ-31" value="" style="rounded=0;orthogonalLoop=1;jettySize=auto;html=1;endArrow=none;startFill=0;" edge="1" parent="1" source="pT8gLiH-kr4bqjJFzXZJ-16" target="pT8gLiH-kr4bqjJFzXZJ-15">
          <mxGeometry relative="1" as="geometry" />
        </mxCell>
        <mxCell id="pT8gLiH-kr4bqjJFzXZJ-16" value="PC" style="shape=parallelogram;perimeter=parallelogramPerimeter;whiteSpace=wrap;html=1;fixedSize=1;" vertex="1" parent="1">
          <mxGeometry x="575" y="460" width="88" height="40" as="geometry" />
        </mxCell>
        <mxCell id="pT8gLiH-kr4bqjJFzXZJ-18" style="rounded=0;orthogonalLoop=1;jettySize=auto;html=1;exitX=0.8;exitY=0.8;exitDx=0;exitDy=0;exitPerimeter=0;entryX=0.25;entryY=0;entryDx=0;entryDy=0;endArrow=none;startFill=0;" edge="1" parent="1" source="pT8gLiH-kr4bqjJFzXZJ-19" target="pT8gLiH-kr4bqjJFzXZJ-12">
          <mxGeometry relative="1" as="geometry" />
        </mxCell>
        <mxCell id="pT8gLiH-kr4bqjJFzXZJ-19" value="Internet" style="ellipse;shape=cloud;whiteSpace=wrap;html=1;" vertex="1" parent="1">
          <mxGeometry x="543" y="140" width="120" height="80" as="geometry" />
        </mxCell>
        <mxCell id="pT8gLiH-kr4bqjJFzXZJ-20" style="rounded=0;orthogonalLoop=1;jettySize=auto;html=1;exitX=0.75;exitY=0;exitDx=0;exitDy=0;entryX=0.31;entryY=0.8;entryDx=0;entryDy=0;entryPerimeter=0;endArrow=none;startFill=0;" edge="1" parent="1" source="pT8gLiH-kr4bqjJFzXZJ-14" target="pT8gLiH-kr4bqjJFzXZJ-19">
          <mxGeometry relative="1" as="geometry" />
        </mxCell>
        <mxCell id="pT8gLiH-kr4bqjJFzXZJ-21" style="rounded=0;orthogonalLoop=1;jettySize=auto;html=1;exitX=0.25;exitY=1;exitDx=0;exitDy=0;entryX=1;entryY=0;entryDx=0;entryDy=0;endArrow=none;startFill=0;" edge="1" parent="1" source="pT8gLiH-kr4bqjJFzXZJ-22" target="pT8gLiH-kr4bqjJFzXZJ-25">
          <mxGeometry relative="1" as="geometry">
            <mxPoint x="930" y="310" as="targetPoint" />
          </mxGeometry>
        </mxCell>
        <mxCell id="pT8gLiH-kr4bqjJFzXZJ-22" value="Router_B" style="rounded=0;whiteSpace=wrap;html=1;" vertex="1" parent="1">
          <mxGeometry x="980" y="265" width="100" height="50" as="geometry" />
        </mxCell>
        <mxCell id="pT8gLiH-kr4bqjJFzXZJ-23" style="rounded=0;orthogonalLoop=1;jettySize=auto;html=1;exitX=0.75;exitY=1;exitDx=0;exitDy=0;endArrow=none;startFill=0;" edge="1" parent="1" source="pT8gLiH-kr4bqjJFzXZJ-24" target="pT8gLiH-kr4bqjJFzXZJ-25">
          <mxGeometry relative="1" as="geometry" />
        </mxCell>
        <mxCell id="pT8gLiH-kr4bqjJFzXZJ-24" value="Router_A" style="rounded=0;whiteSpace=wrap;html=1;" vertex="1" parent="1">
          <mxGeometry x="827" y="260" width="100" height="50" as="geometry" />
        </mxCell>
        <mxCell id="pT8gLiH-kr4bqjJFzXZJ-25" value="Switch" style="ellipse;whiteSpace=wrap;html=1;aspect=fixed;" vertex="1" parent="1">
          <mxGeometry x="930" y="360" width="53" height="53" as="geometry" />
        </mxCell>
        <mxCell id="pT8gLiH-kr4bqjJFzXZJ-26" value="PC" style="shape=parallelogram;perimeter=parallelogramPerimeter;whiteSpace=wrap;html=1;fixedSize=1;" vertex="1" parent="1">
          <mxGeometry x="895" y="460" width="108" height="40" as="geometry" />
        </mxCell>
        <mxCell id="pT8gLiH-kr4bqjJFzXZJ-27" style="rounded=0;orthogonalLoop=1;jettySize=auto;html=1;exitX=0.5;exitY=1;exitDx=0;exitDy=0;entryX=0.558;entryY=0.05;entryDx=0;entryDy=0;entryPerimeter=0;endArrow=none;startFill=0;" edge="1" parent="1" source="pT8gLiH-kr4bqjJFzXZJ-25" target="pT8gLiH-kr4bqjJFzXZJ-26">
          <mxGeometry relative="1" as="geometry" />
        </mxCell>
        <mxCell id="pT8gLiH-kr4bqjJFzXZJ-28" style="rounded=0;orthogonalLoop=1;jettySize=auto;html=1;exitX=0.8;exitY=0.8;exitDx=0;exitDy=0;exitPerimeter=0;entryX=0.25;entryY=0;entryDx=0;entryDy=0;endArrow=none;startFill=0;" edge="1" parent="1" source="pT8gLiH-kr4bqjJFzXZJ-29" target="pT8gLiH-kr4bqjJFzXZJ-22">
          <mxGeometry relative="1" as="geometry" />
        </mxCell>
        <mxCell id="pT8gLiH-kr4bqjJFzXZJ-29" value="Internet" style="ellipse;shape=cloud;whiteSpace=wrap;html=1;" vertex="1" parent="1">
          <mxGeometry x="883" y="140" width="120" height="80" as="geometry" />
        </mxCell>
        <mxCell id="pT8gLiH-kr4bqjJFzXZJ-30" style="rounded=0;orthogonalLoop=1;jettySize=auto;html=1;exitX=0.75;exitY=0;exitDx=0;exitDy=0;entryX=0.31;entryY=0.8;entryDx=0;entryDy=0;entryPerimeter=0;endArrow=none;startFill=0;dashed=1;dashPattern=8 8;strokeColor=#FF0000;" edge="1" parent="1" source="pT8gLiH-kr4bqjJFzXZJ-24" target="pT8gLiH-kr4bqjJFzXZJ-29">
          <mxGeometry relative="1" as="geometry" />
        </mxCell>
      </root>
    </mxGraphModel>
  </diagram>
</mxfile>
